<svg xmlns="http://www.w3.org/2000/svg" width="42.066" height="42" viewBox="0 0 42.066 42">
  <g id="Instagram" transform="translate(0.067 0)">
    <g id="Vector_Smart_Object" data-name="Vector Smart Object" transform="translate(-186.776 -69.93)">
      <g id="Group_2" data-name="Group 2">
        <path id="Path_5" data-name="Path 5" d="M217.244,84.209a4.021,4.021,0,0,0-2.307-2.3,6.747,6.747,0,0,0-2.258-.418c-1.282-.058-1.667-.071-4.914-.071s-3.631.012-4.914.071a6.743,6.743,0,0,0-2.258.418,4.024,4.024,0,0,0-2.308,2.3,6.711,6.711,0,0,0-.419,2.254c-.058,1.28-.071,1.664-.071,4.906s.012,3.626.071,4.906a6.714,6.714,0,0,0,.419,2.254,4.024,4.024,0,0,0,2.308,2.3,6.744,6.744,0,0,0,2.258.418c1.282.058,1.667.071,4.914.071s3.632-.012,4.914-.071a6.747,6.747,0,0,0,2.258-.418,4.021,4.021,0,0,0,2.307-2.3,6.7,6.7,0,0,0,.419-2.254c.058-1.28.071-1.664.071-4.906s-.012-3.626-.071-4.906A6.7,6.7,0,0,0,217.244,84.209Zm-9.48,13.4a6.235,6.235,0,1,1,6.245-6.235A6.24,6.24,0,0,1,207.765,97.6Zm6.491-11.259a1.457,1.457,0,1,1,1.46-1.457A1.458,1.458,0,0,1,214.256,86.345Z" fill="#fff"/>
        <path id="Path_6" data-name="Path 6" d="M207.765,87.323a4.047,4.047,0,1,0,4.053,4.047A4.05,4.05,0,0,0,207.765,87.323Z" fill="#fff"/>
        <path id="Path_7" data-name="Path 7" d="M207.743,69.93a21,21,0,1,0,21.033,21A21.017,21.017,0,0,0,207.743,69.93Zm12.109,26.445a8.9,8.9,0,0,1-.566,2.947,6.211,6.211,0,0,1-3.556,3.551,8.941,8.941,0,0,1-2.952.564c-1.3.059-1.711.073-5.014.073s-3.716-.014-5.014-.073a8.941,8.941,0,0,1-2.952-.564,6.214,6.214,0,0,1-3.557-3.551,8.9,8.9,0,0,1-.565-2.947c-.059-1.295-.073-1.708-.073-5.006s.014-3.711.073-5.006a8.9,8.9,0,0,1,.565-2.947,6.214,6.214,0,0,1,3.557-3.551,8.941,8.941,0,0,1,2.952-.564c1.3-.059,1.711-.073,5.014-.073s3.717.014,5.014.073a8.941,8.941,0,0,1,2.952.564,6.211,6.211,0,0,1,3.556,3.551,8.9,8.9,0,0,1,.566,2.947c.059,1.3.073,1.708.073,5.006S219.911,95.081,219.852,96.375Z" fill="#fff"/>
      </g>
    </g>
  </g>
</svg>
