<svg xmlns="http://www.w3.org/2000/svg" width="185.904" height="41.111" viewBox="0 0 185.904 41.111">
  <g id="Logo" transform="translate(-60.695 -40.445)">
    <g id="Place_Your_Logo_Here_Double_Click_to_Edit_" data-name="Place Your Logo Here (Double Click to Edit)" transform="translate(53 24)">
      <g id="Vector_Smart_Object" data-name="Vector Smart Object" transform="translate(-14.125 -74.588)">
        <g id="Group_9" data-name="Group 9">
          <text id="YOUR_LOGO" data-name="YOUR LOGO" transform="translate(66.724 124.278)" fill="#fff" font-size="22" font-family="Montserrat-ExtraBold, Montserrat" font-weight="800"><tspan x="0" y="0">YOUR LOGO</tspan></text>
          <g id="Group_5" data-name="Group 5">
            <g id="Group_4" data-name="Group 4">
              <g id="Group_3" data-name="Group 3">
                <path id="Path_8" data-name="Path 8" d="M35.577,97.393c-1.41-4.055-5.526-6.463-9.194-5.381s-5.5,5.246-4.087,9.3a8.079,8.079,0,0,0,7.676,5.621l4.651,21.313a3.316,3.316,0,0,0,.117.422A4.268,4.268,0,0,0,40,131.163a3.8,3.8,0,0,0,2.708-4.847,3.265,3.265,0,0,0-.141-.344l-9.355-20.14A7.231,7.231,0,0,0,35.577,97.393Z" fill="#fff"/>
              </g>
            </g>
          </g>
          <g id="Group_8" data-name="Group 8">
            <g id="Group_7" data-name="Group 7">
              <g id="Group_6" data-name="Group 6">
                <path id="Path_9" data-name="Path 9" d="M58.3,91.032A1.343,1.343,0,0,0,56.9,92.317v6.424a1.4,1.4,0,0,1-2.789,0V92.317a1.4,1.4,0,0,0-2.789,0v6.424a1.4,1.4,0,0,1-2.789,0V92.317a1.4,1.4,0,0,0-2.789,0v7.708a6.57,6.57,0,0,0,5.442,6.257l-2.628,21.573a3.746,3.746,0,0,0-.025.434,4.2,4.2,0,0,0,8.368,0,3.156,3.156,0,0,0-.02-.367l-2.231-21.755a6.517,6.517,0,0,0,5.04-6.141V92.317A1.343,1.343,0,0,0,58.3,91.032Z" fill="#fff"/>
              </g>
            </g>
          </g>
        </g>
      </g>
    </g>
  </g>
</svg>
