<svg xmlns="http://www.w3.org/2000/svg" width="42" height="42" viewBox="0 0 42 42">
  <g id="Vector_Smart_Object" data-name="Vector Smart Object" transform="translate(-116.55 -69.93)">
    <path id="Path_3" data-name="Path 3" d="M137.55,69.93a21,21,0,1,0,21,21A21,21,0,0,0,137.55,69.93ZM148.5,87.149a13.767,13.767,0,0,1-21.18,12.225,9.73,9.73,0,0,0,7.167-2,4.844,4.844,0,0,1-4.521-3.363,4.841,4.841,0,0,0,2.186-.083,4.846,4.846,0,0,1-3.883-4.808,4.819,4.819,0,0,0,2.193.606,4.846,4.846,0,0,1-1.5-6.463,13.737,13.737,0,0,0,9.977,5.058,4.844,4.844,0,0,1,8.25-4.415,9.7,9.7,0,0,0,3.074-1.175,4.848,4.848,0,0,1-2.128,2.678,9.671,9.671,0,0,0,2.78-.762A9.806,9.806,0,0,1,148.5,87.149Z" fill="#fff"/>
  </g>
</svg>
