<svg xmlns="http://www.w3.org/2000/svg" width="42" height="42" viewBox="0 0 42 42">
  <g id="Vector_Smart_Object" data-name="Vector Smart Object" transform="translate(-255.007 -135.785)">
    <g id="Group_1" data-name="Group 1">
      <path id="Path_1" data-name="Path 1" d="M276.285,145.625a10.008,10.008,0,0,0-9.976,8.983,9.234,9.234,0,0,0-.051.966,9.851,9.851,0,0,0,1.909,5.834l-1.251,3.7,3.852-1.228a10.035,10.035,0,0,0,15.543-8.3c0-.262-.011-.519-.034-.776A10.007,10.007,0,0,0,276.285,145.625Zm5.851,14.052a2.914,2.914,0,0,1-1.97,1.379c-.536.051-.536.436-3.512-.72a12.006,12.006,0,0,1-4.991-4.383,6.593,6.593,0,0,1-1.044-2.01,3.682,3.682,0,0,1-.151-.988,3.249,3.249,0,0,1,1.022-2.423,1.082,1.082,0,0,1,.782-.363c.2,0,.391.028.559.028s.419-.1.659.48.832,2.01.9,2.155a.524.524,0,0,1,.022.508,3.291,3.291,0,0,1-.184.346l-.106.139c-.151.167-.307.374-.441.508s-.3.3-.129.592a8.668,8.668,0,0,0,1.625,2,7.9,7.9,0,0,0,2.35,1.44c.3.146.463.123.636-.072s.731-.843.927-1.134.391-.245.659-.145,1.7.8,2,.944.486.218.558.335A2.4,2.4,0,0,1,282.135,159.677Z" fill="#fff"/>
      <path id="Path_2" data-name="Path 2" d="M276.007,135.785a21,21,0,1,0,21,21A21,21,0,0,0,276.007,135.785Zm.278,31.625a11.94,11.94,0,0,1-5.761-1.474l-6.6,2.1,2.149-6.348a11.747,11.747,0,0,1-1.708-6.113c0-.173.006-.346.011-.519a11.928,11.928,0,0,1,23.833.218c.006.1.006.2.006.3A11.879,11.879,0,0,1,276.285,167.409Z" fill="#fff"/>
    </g>
  </g>
</svg>
