<svg xmlns="http://www.w3.org/2000/svg" xmlns:xlink="http://www.w3.org/1999/xlink" width="1916.12" height="1104.143" viewBox="0 0 1916.12 1104.143">
  <defs>
    <pattern id="pattern" preserveAspectRatio="none" width="100%" height="100%" viewBox="0 0 0 0">
      <image/>
    </pattern>
  </defs>
  <g id="Design" transform="translate(174.12 -1752.861)">
    <g id="Vector_Smart_Object_Double_Click_to_Edit_" data-name="Vector Smart Object (Double Click to Edit)" transform="translate(1742 2857) rotate(-90)">
      <path id="Vector_Smart_Object_Double_Click_to_Edit_2" data-name="Vector Smart Object (Double Click to Edit)" d="M514.376-1915.437c-45.486,8.451-90.82,16.975-135.565,27.98-91.036,22.539-173.941,46.167-256.179,70.706l-35.377,10.781q-18.764,5.894-37.569,11.8c-36.2.007-22.913,36.167-26.156,60.824q-.678,36.236-1.371,73.231-.816,33.269-1.654,67.542c-.19,8.087-.376,16.086-.564,24.113-2,88.767-2.339,172.56-1.088,259.472,1.1-5.547,2.128-11.345,3.111-17.284,1.024,69.908,1.384,139.958-1.059,209.984C14.5-944.61,8.089-772.962,6.49-589.859c-.641,95.937-1.8,190.1-3.471,284.619C2.06-252.264,1.1-199.183.133-145.7-.122-128.13.069-110.81.011-93.145v16.558a6.659,6.659,0,0,0,.08,1.6l1.585.369,6.341,1.469,25.44,5.818C50.48-63.482,67.669-59.574,85.251-56l48.96,9.631L94.966-54.534c-14.374-3.09-28.6-6.238-42.572-9.563L10.763-74.014,5.587-75.263,3-75.89l-1.294-.316c-.391-.137-.1-.829-.185-1.218l.1-11.011.187-21.917c.032-28.966.946-58.358,1.393-87.283q.6-30.614,1.2-61.555c-.169-36.657-.249-73.168.079-108.626C5-331.048,4.887-294.964,4.4-259.19c.173,41.75.349,83.788.522,125.369q.27,18.473.537,36.832l.119,9.18.056,4.585.028,2.291.014,1.145c.225.2.705.2,1.046.306l17.831,3.859c23.681,5.077,47.11,10.159,70.644,14.8L201.469-39.989c31.082,6.278,60.593,12.5,87.932,19.1l-4.305-.557c-51.609-7.044-101.629-15.4-150.885-24.925C185.583-35.543,237.373-26,290.5-18.539,343.636-11.148,398.1-5.8,454.948-4.671,478.9-4.586,515.373-.41,540.3-.913c31.462-.135,64.185-2.114,98.592-8.013C673.234-15.06,709.653-24.468,747.7-45.263l14.192-8.2,10.65-7.014,20.9-14.015c13.692-9.941,27.581-19.657,40.94-30.494,27.081-21,52.832-44.831,77.442-70.079-7.864,6.617-16.24,12.513-24.251,18.8,25.514-22.333,49.381-47.264,71.865-73.752a593.825,593.825,0,0,0,60.928-86.144,598.406,598.406,0,0,0,73.213-201.672c12.3-70.906,12.867-142.484,6.755-212.193-6.256-69.788-19.082-137.962-34.641-205.441-16.012-66.951-39.059-141.094-59.326-204.854,24.591,95.542,51.7,195.879,70.139,303.188-13.347-60.9-30.805-120.893-47.974-178.763l.7,3.581c11.409,46.036,22.336,93.114,31.719,141.479-6.54-26.377-13.535-52.887-21.051-78.9.343,2.867.708,5.912,1.022,8.53,5,23.4,2.023,92.4-10.95,58.991-20.861-88.353-51.611-190.983-75.378-271.411l-29.216-99.665c-3.585-12.329-6.446-22.165-8.41-28.918l-2.35-7.7a10.077,10.077,0,0,0-1-2.609c-4.763-4.438,12.6,65.246,31.931,135.41,19.282,70.07,38.359,141.041,35.779,135.813q-8.384-24.179-16.767-48.352c3.562,15.805,6.95,31.324,9.707,45.725,8.548,33.526,22.822,77.7,25.575,101.11,5.774,40.5,14.468,83.234,21.458,127.992,6.922,44.7,12.684,91.469,11.427,138.637-1.73,58.873-12.379,129.7-37.347,194.6-1.218-.331-3.551,5.627-5.782,11.585-1.855,4.955-3.642,9.909-4.66,11.247a524.529,524.529,0,0,0,17.135-66.109q.286-1.089.566-2.174c14.443-62.039,15.954-128.919,9.193-194.645-6.664-65.887-21.12-130.9-37.652-193.546q5.017,23.54,9.331,47.05c-2.658-11.655-5.451-23.316-8.381-35.061q-4.6-22.144-9.542-43.882c-3-10.676-5.933-21.14-8.891-31.682q-9.415-33.076-19.5-65.948c6.927,20.266,13.469,40.453,19.778,60.605-10.019-41.614-20.684-82.558-31.174-122.872-31.008-110.65-65.129-222.062-91.86-335.028-26.7-112.837-46.179-227.611-46.818-341.764-1.918,4.45-3.819,9.606-5.7,15.354-.127,55.343,5.333,110.627,11.848,163.242,6.9,52.606,15.273,102.59,21.871,148.057-14.937-62.824-21-107.149-29.264-168.647-.9.176-2.3-.237-2.161,4.982-3.728-39.661-6.457-86-7.165-130.959-2.217,8.689-4.342,18.07-6.309,27.755a977.471,977.471,0,0,1,3.775-156.5c7.845-73.024-141.179-60.863-306.2-25.831-15.468,1.212-23.938,1.005-18.556-2.751,11.242-5.94,49.556-11.393,93-16.623,2.5-1.037,5.4-2.085,8.393-3.03-30.556,4.416-28.879.883-26.061-2.65,1.878-2.356,4.262-4.711-2.061-4.711A66.72,66.72,0,0,0,514.376-1915.437Zm383.951,772.381,1.671,5.921-.65-2.039Q898.836-1141.117,898.327-1143.056Zm181.992,403.08c-4.343-44.606-11.205-88.278-19.372-130.858,21.9,89.821,34.947,182.181,27.409,263.358-1.1,10.1-2.008,20.078-3.549,29.625-2.782,20.136-6.135,40.313-10.532,60.295C1087.718-592.908,1087.291-668.239,1080.319-739.976Zm10.358,169.584a779.808,779.808,0,0,0,3.458-91.613c-1.114-60.362-8.087-118.792-17.629-175.126,11.264,51.53,19.672,103.649,22.283,154.514,2.924,50.709-.126,100.087-9.349,143.93l-2.924,15.293L1083-508.166c-2.18,10.141-4.958,20.212-7.783,30.281A627.477,627.477,0,0,0,1090.677-570.392ZM102-60.732l-31.34-7.037c-20.686-4.925-41.245-9.756-61.524-14.9q.416-32.494.836-65.2.643-30.625,1.285-61.2c1.461-62.761,1.9-124.678,1.233-181.647,0-91.652,9.609-354.81,28.832-309.008C23.871-643.053,23.7-453.83,23.3-288.718c-.218,43.713-.427,85.829-.617,123.762-.139,22.408-.272,43.579-.395,63.136q-.035,3.7-.071,7.329c-.551,1.648,1.5,1.183,2.385,1.647l3.372.8,13.1,3.092,24.3,5.8c15.315,3.713,28.909,7.029,40.3,10.018,5.7,1.485,10.845,2.917,15.375,4.289l6.292,1.966c1.9.624,2.965,1.127,4.275,1.68,9.752,4.314,10.574,7.981-.149,10.843ZM604.93-69.888,619.1-71.4c4.727-.625,9.445-1.484,14.2-2.238,9.532-1.341,18.985-3.617,28.52-5.878,9.545-2.176,18.943-5.521,28.45-8.585,9.284-3.911,18.857-7.231,27.843-12.49,9.51-4.77,17.427-10.073,25.714-15.276,8.254-5.228,16.594-10.378,24.588-16.095,8.035-5.649,16.261-11.067,24.155-16.984l23.609-17.926c61.96-49.172,117.159-109.075,157.2-176.647a454.392,454.392,0,0,0,38.449-83.853c10.037-29.565,17.04-60.226,21.878-90.659,9.884-61.03,9.991-120.732,11.125-174.508l4.792-.416-.739,12.031c3.932,41.823,6.439,76.14,5.216,112.173.284-2.032.587-4.216.87-6.249-.344,3.589-.687,7.178-1.037,10.83-1.157,24.024-3.963,49.12-11.29,77.295-3.193,12.915-7.669,25.8-11.714,38.76-22.281,74.108-62.012,143.859-111.508,200.571a643,643,0,0,1-79.473,76.315,692.143,692.143,0,0,1-85.11,59.279,711.582,711.582,0,0,0,103.242-77.419,634.849,634.849,0,0,0,94.754-107.189c-27.613,38.436-59.7,73.932-94.171,106.058a385.944,385.944,0,0,1-76.312,56.46c-9.4,7-17.8,15.586-27.512,22.091l-13.083,7.929c-4.431,2.6-8.311,5.191-13.47,7.694L713.756-88.99c-4.887,2.055-9.793,3.853-14.634,5.73l-7.247,2.741L684.57-78.4l-14.48,4.132c-9.695,2.007-19.253,4.353-28.852,5.78-38.369,6.117-76.336,7.528-116.825,7.6C547.456-61.858,581.8-67.359,604.93-69.888ZM1029.257-352.03Zm-331,315.372c10.631-3.44,21.588-8.8,32.321-13.63,5.389-2.571,10.84-5.926,16.2-8.911l8.026-4.648c2.47-1.491,4.193-2.721,6.319-4.087l24.156-15.754c7.939-5.22,15.584-10.751,23.218-15.911,13.22-8.923,26.062-18.707,39.479-27.708l19.768-14.325c6.665-4.72,13.332-9.5,19.826-14.632-38.85,34.725-80.359,65-123.311,92.037l-4.006,2.584-2.041,1.306-2.652,1.525L744.908-52.8c-3.558,1.952-7.144,4-10.7,5.8l-10.6,4.7c-14.247,6.621-28.143,10.94-42.065,15.322-27.726,8.147-54.605,12.526-81.269,16C547.152-4.824,495.387-4.422,443.861-6.756,392.3-8.969,341.034-14.173,289.4-20.886c12.163-.162,12.309-1.755,23.941-.634,82.051,7.439,164.565,8.377,238.306,8.5.037.68,5.969.47,12.316.26,9.542-.316,20.026-.631,12.839,2.075C614.091-14.347,655.355-21.206,698.259-36.658Zm96.082-1739.649c-3.751,96.21,9.531,197.316,30.486,295.1,20.718,97.975,48.555,193.152,72.01,281.926q14.445,55.993,28.961,112.262c13.595,48.45,26.438,96.742,37.854,144.972-2.209-7.308-4.446-14.707-6.68-22.1l8.613,37.024c2.856,10.6,5.705,21.177,8.591,31.893-3.213-15.563-6.893-31.161-10.525-46.816,23.211,78.2,41.266,156.887,49.111,237.33,3.848,40.183,5.233,80.773,2.671,121.494a606.667,606.667,0,0,1-20.056,121.635c19.218-54.482,28.275-112.724,30.278-170.948,2.069-58.334-2.317-116.739-8.759-174.8-7.2-58-22.852-123.109-39.5-184.363-16.57-61.337-33.558-119.219-42.851-164.324-.342-1.63-.7-3.312-1.037-4.942-33.8-101.549-64.341-203.332-86.923-305.927-22.5-102.545-36.928-205.741-37.779-308.6-2.434-3.5-4.872-5.1-7.315-5.1C799.113-1780.585,796.73-1779.068,794.341-1776.307Zm192.925,630.182c-9.5-33.165-9.048-16.2-6.437.767,2.65,17.222,7.518,34.444,6.437-.767,4.87,17.105,12.56,47.59,23.469,98.929,9.794,31.992,19.742,64.574,29.16,97.46-2.272-18.463-6.161-40.1-10.668-62.576-13.489-54.232-27.6-106.99-40.979-158.487-.9-2.828-1.871-5.869-2.781-8.724C986.459-1165.1,987-1154.315,987.266-1146.125ZM1022.6-434.761c-15.919,47.27-40.091,94.778-69.779,138.2a648.777,648.777,0,0,0,45.053-73.83,642.109,642.109,0,0,0,33.043-77.726,619.259,619.259,0,0,0,23-116.055q.085-2.336.167-4.581C1048.272-528.1,1039.118-481.9,1022.6-434.761ZM936.2-201.909c-7.728,9.457-16.284,17.955-24.376,26.849l18.142-15.013c8.68-9.662,25.711-29.1,33.479-39.688C954.765-219.945,945.38-211,936.2-201.909Z" fill="#333"/>
      <rect id="Place_Your_Image_Here" data-name="Place Your Image Here" fill="url(#pattern)"/>
    </g>
  </g>
</svg>
